{
  "accessors": [
    {
      "bufferView": 2,
      "componentType": 5126,
      "count": 7730,
      "max": [
        37.120307922363281,
        66.135490417480469,
        20.19798469543457
      ],
      "min": [
        -37.120307922363281,
        -10.372964859008789,
        -19.935041427612305
      ],
      "type": "VEC3"
    },
    {
      "bufferView": 2,
      "byteOffset": 92760,
      "componentType": 5126,
      "count": 7730,
      "max": [
        0.99994981288909912,
        1,
        1
      ],
      "min": [
        -0.99994969367980957,
        -1,
        -1
      ],
      "type": "VEC3"
    },
    {
      "bufferView": 3,
      "componentType": 5126,
      "count": 7730,
      "max": [
        1,
        0.99992656707763672,
        1,
        1
      ],
      "min": [
        -1,
        -0.99986755847930908,
        -1,
        -1
      ],
      "type": "VEC4"
    },
    {
      "bufferView": 1,
      "componentType": 5126,
      "count": 7730,
      "max": [
        0.9997103214263916,
        1
      ],
      "min": [
        0,
        -1.5769826859468594e-05
      ],
      "type": "VEC2"
    },
    {
      "bufferView": 0,
      "componentType": 5125,
      "count": 23598,
      "max": [
        7729
      ],
      "min": [
        0
      ],
      "type": "SCALAR"
    },
    {
      "bufferView": 2,
      "byteOffset": 185520,
      "componentType": 5126,
      "count": 238,
      "max": [
        36.725200653076172,
        21.789125442504883,
        1.386909008026123
      ],
      "min": [
        -36.725200653076172,
        -11.700601577758789,
        -1.3868823051452637
      ],
      "type": "VEC3"
    },
    {
      "bufferView": 2,
      "byteOffset": 188376,
      "componentType": 5126,
      "count": 238,
      "max": [
        0.98358231782913208,
        0.96863853931427002,
        1
      ],
      "min": [
        -0.98358231782913208,
        -0.96863561868667603,
        -1
      ],
      "type": "VEC3"
    },
    {
      "bufferView": 3,
      "byteOffset": 123680,
      "componentType": 5126,
      "count": 238,
      "max": [
        0.98757237195968628,
        0.54411828517913818,
        0.98490536212921143,
        1
      ],
      "min": [
        -0.9875723123550415,
        -0.99483096599578857,
        -0.98485749959945679,
        -1
      ],
      "type": "VEC4"
    },
    {
      "bufferView": 1,
      "byteOffset": 61840,
      "componentType": 5126,
      "count": 238,
      "max": [
        0.96441346406936646,
        0.94261068105697632
      ],
      "min": [
        0.53382927179336548,
        0.31027215719223022
      ],
      "type": "VEC2"
    },
    {
      "bufferView": 0,
      "byteOffset": 94392,
      "componentType": 5125,
      "count": 636,
      "max": [
        237
      ],
      "min": [
        0
      ],
      "type": "SCALAR"
    }
  ],
  "asset": {
    "extras": {
      "author": "Ozhogi (https://sketchfab.com/ozhogi)",
      "license": "CC-BY-4.0 (http://creativecommons.org/licenses/by/4.0/)",
      "source": "https://sketchfab.com/3d-models/headphones-53d859cc3a4e4ad98cf238840b490485",
      "title": "Headphones"
    },
    "generator": "Sketchfab-7.30.0",
    "version": "2.0"
  },
  "bufferViews": [
    {
      "buffer": 0,
      "byteLength": 96936,
      "byteOffset": 0,
      "name": "floatBufferViews",
      "target": 34963
    },
    {
      "buffer": 0,
      "byteLength": 63744,
      "byteOffset": 96936,
      "byteStride": 8,
      "name": "floatBufferViews",
      "target": 34962
    },
    {
      "buffer": 0,
      "byteLength": 191232,
      "byteOffset": 160680,
      "byteStride": 12,
      "name": "floatBufferViews",
      "target": 34962
    },
    {
      "buffer": 0,
      "byteLength": 127488,
      "byteOffset": 351912,
      "byteStride": 16,
      "name": "floatBufferViews",
      "target": 34962
    }
  ],
  "buffers": [
    {
      "byteLength": 479400,
      "uri": "scene.bin"
    }
  ],
  "images": [
    {
      "uri": "textures/Headphones_baseColor.png"
    },
    {
      "uri": "textures/Headphones_metallicRoughness.png"
    },
    {
      "uri": "textures/Headphones_normal.png"
    }
  ],
  "materials": [
    {
      "doubleSided": false,
      "name": "Headphones",
      "normalTexture": {
        "index": 2,
        "scale": 1,
        "texCoord": 0
      },
      "pbrMetallicRoughness": {
        "baseColorFactor": [
          1,
          1,
          1,
          1
        ],
        "baseColorTexture": {
          "index": 0,
          "texCoord": 0
        },
        "metallicFactor": 1,
        "metallicRoughnessTexture": {
          "index": 1,
          "texCoord": 0
        },
        "roughnessFactor": 1
      }
    },
    {
      "doubleSided": true,
      "emissiveFactor": [
        0,
        0,
        0
      ],
      "name": "Headphones.002",
      "pbrMetallicRoughness": {
        "baseColorFactor": [
          1,
          1,
          1,
          1
        ],
        "metallicFactor": 1,
        "roughnessFactor": 0.3675685975609756
      }
    }
  ],
  "meshes": [
    {
      "primitives": [
        {
          "attributes": {
            "NORMAL": 1,
            "POSITION": 0,
            "TANGENT": 2,
            "TEXCOORD_0": 3
          },
          "indices": 4,
          "material": 0,
          "mode": 4
        }
      ]
    },
    {
      "primitives": [
        {
          "attributes": {
            "NORMAL": 6,
            "POSITION": 5,
            "TANGENT": 7,
            "TEXCOORD_0": 8
          },
          "indices": 9,
          "material": 1,
          "mode": 4
        }
      ]
    }
  ],
  "nodes": [
    {
      "children": [
        1
      ],
      "name": "RootNode (gltf orientation matrix)",
      "rotation": [
        -0.70710678118654746,
        -0,
        -0,
        0.70710678118654757
      ]
    },
    {
      "children": [
        2
      ],
      "name": "RootNode (model correction matrix)"
    },
    {
      "children": [
        3
      ],
      "matrix": [
        1,
        0,
        0,
        0,
        0,
        0,
        1,
        0,
        0,
        -1,
        0,
        0,
        0,
        0,
        0,
        1
      ],
      "name": "ddb2fd2b3cc34ed0931c7013f7aaf797.fbx"
    },
    {
      "children": [
        4
      ],
      "name": ""
    },
    {
      "children": [
        5,
        7
      ],
      "name": "RootNode"
    },
    {
      "children": [
        6
      ],
      "name": "Headphones",
      "rotation": [
        2.1855694143368964e-08,
        0,
        0,
        1
      ]
    },
    {
      "mesh": 0,
      "name": ""
    },
    {
      "children": [
        8
      ],
      "name": "Headphones.002",
      "rotation": [
        2.1855694143368964e-08,
        0,
        0,
        1
      ]
    },
    {
      "mesh": 1,
      "name": ""
    }
  ],
  "samplers": [
    {
      "magFilter": 9729,
      "minFilter": 9987,
      "wrapS": 10497,
      "wrapT": 10497
    }
  ],
  "scene": 0,
  "scenes": [
    {
      "name": "OSG_Scene",
      "nodes": [
        0
      ]
    }
  ],
  "textures": [
    {
      "sampler": 0,
      "source": 0
    },
    {
      "sampler": 0,
      "source": 1
    },
    {
      "sampler": 0,
      "source": 2
    }
  ]
}

