{
  "accessors": [
    {
      "bufferView": 2,
      "componentType": 5126,
      "count": 29506,
      "max": [
        8.7869472503662109,
        22.593425750732422,
        4.594362735748291
      ],
      "min": [
        -8.7869472503662109,
        -22.593427658081055,
        -4.594362735748291
      ],
      "type": "VEC3"
    },
    {
      "bufferView": 2,
      "byteOffset": 354072,
      "componentType": 5126,
      "count": 29506,
      "max": [
        1,
        0.99999141693115234,
        0.99995237588882446
      ],
      "min": [
        -0.99999886751174927,
        -0.99984604120254517,
        -0.99998742341995239
      ],
      "type": "VEC3"
    },
    {
      "bufferView": 3,
      "componentType": 5126,
      "count": 29506,
      "max": [
        0.99999934434890747,
        0.99999970197677612,
        0.99835199117660522,
        1
      ],
      "min": [
        -0.99999946355819702,
        -0.99999994039535522,
        -0.99976664781570435,
        -1
      ],
      "type": "VEC4"
    },
    {
      "bufferView": 1,
      "componentType": 5126,
      "count": 29506,
      "max": [
        0.99975597858428955,
        0.45581001043319702
      ],
      "min": [
        0.00024399999529123306,
        0.00024399999529123306
      ],
      "type": "VEC2"
    },
    {
      "bufferView": 0,
      "componentType": 5125,
      "count": 134997,
      "max": [
        29505
      ],
      "min": [
        0
      ],
      "type": "SCALAR"
    }
  ],
  "asset": {
    "extras": {
      "author": "3DScanX (https://sketchfab.com/dotscott)",
      "license": "CC-BY-4.0 (http://creativecommons.org/licenses/by/4.0/)",
      "source": "https://sketchfab.com/3d-models/clothing-3d-scan-56fe24bba85f4ae1a245d94c9557e095",
      "title": "Clothing - 3D Scan"
    },
    "generator": "Sketchfab-4.47.0",
    "version": "2.0"
  },
  "bufferViews": [
    {
      "buffer": 0,
      "byteLength": 539988,
      "byteOffset": 0,
      "name": "floatBufferViews",
      "target": 34963
    },
    {
      "buffer": 0,
      "byteLength": 236048,
      "byteOffset": 539988,
      "byteStride": 8,
      "name": "floatBufferViews",
      "target": 34962
    },
    {
      "buffer": 0,
      "byteLength": 708144,
      "byteOffset": 776036,
      "byteStride": 12,
      "name": "floatBufferViews",
      "target": 34962
    },
    {
      "buffer": 0,
      "byteLength": 472096,
      "byteOffset": 1484180,
      "byteStride": 16,
      "name": "floatBufferViews",
      "target": 34962
    }
  ],
  "buffers": [
    {
      "byteLength": 1956276,
      "uri": "scene.bin"
    }
  ],
  "extensionsUsed": [
    "KHR_materials_unlit"
  ],
  "images": [
    {
      "uri": "textures/Travis_Clothes_Model_02_Material_u1_v1_emissive.jpeg"
    },
    {
      "uri": "textures/Travis_Clothes_Model_02_Material_u1_v1_baseColor.jpeg"
    }
  ],
  "materials": [
    {
      "doubleSided": true,
      "emissiveFactor": [
        0,
        0,
        0
      ],
      "emissiveTexture": {
        "index": 0,
        "texCoord": 0
      },
      "extensions": {
        "KHR_materials_unlit": {}
      },
      "name": "Travis_Clothes_Model_02_Material_u1_v1",
      "pbrMetallicRoughness": {
        "baseColorFactor": [
          1,
          1,
          1,
          1
        ],
        "baseColorTexture": {
          "index": 1,
          "texCoord": 0
        },
        "metallicFactor": 0,
        "roughnessFactor": 1
      }
    }
  ],
  "meshes": [
    {
      "primitives": [
        {
          "attributes": {
            "NORMAL": 1,
            "POSITION": 0,
            "TANGENT": 2,
            "TEXCOORD_0": 3
          },
          "indices": 4,
          "material": 0,
          "mode": 4
        }
      ]
    }
  ],
  "nodes": [
    {
      "children": [
        1
      ],
      "name": "RootNode (gltf orientation matrix)",
      "rotation": [
        -0.70710678118654746,
        -0,
        -0,
        0.70710678118654757
      ]
    },
    {
      "children": [
        2
      ],
      "matrix": [
        -0.9999997615814209,
        -0.00065099127823486924,
        0,
        0,
        0,
        0,
        -1,
        0,
        0.00065099127823486924,
        -0.9999997615814209,
        0,
        0,
        -7.6290998549666256e-06,
        0.00010156379721593112,
        0.0001015663001453504,
        1
      ],
      "name": "RootNode (model correction matrix)"
    },
    {
      "children": [
        3
      ],
      "name": "Travis_Clothes_Model_02 - Pivot Centered.obj.cleaner.materialmerger.gles"
    },
    {
      "mesh": 0,
      "name": ""
    }
  ],
  "samplers": [
    {
      "magFilter": 9729,
      "minFilter": 9987,
      "wrapS": 10497,
      "wrapT": 10497
    }
  ],
  "scene": 0,
  "scenes": [
    {
      "name": "OSG_Scene",
      "nodes": [
        0
      ]
    }
  ],
  "textures": [
    {
      "sampler": 0,
      "source": 0
    },
    {
      "sampler": 0,
      "source": 1
    }
  ]
}

