{
  "accessors": [
    {
      "bufferView": 2,
      "componentType": 5126,
      "count": 57632,
      "max": [
        305.1925048828125,
        163.52920532226562,
        1707.203857421875
      ],
      "min": [
        -283.11318969726562,
        -215.03329467773438,
        994.16357421875
      ],
      "type": "VEC3"
    },
    {
      "bufferView": 2,
      "byteOffset": 691584,
      "componentType": 5126,
      "count": 57632,
      "max": [
        0.99998247623443604,
        0.99999380111694336,
        0.99896442890167236
      ],
      "min": [
        -0.99999022483825684,
        -0.9999995231628418,
        -0.9999699592590332
      ],
      "type": "VEC3"
    },
    {
      "bufferView": 3,
      "componentType": 5126,
      "count": 57632,
      "max": [
        0.99999457597732544,
        0.99999934434890747,
        0.99810236692428589,
        1
      ],
      "min": [
        -0.99999624490737915,
        -0.99999994039535522,
        -0.99999153614044189,
        -1
      ],
      "type": "VEC4"
    },
    {
      "bufferView": 1,
      "componentType": 5126,
      "count": 57632,
      "max": [
        0.89819997549057007,
        0.9901999831199646
      ],
      "min": [
        0.092500001192092896,
        0.0078999996185302734
      ],
      "type": "VEC2"
    },
    {
      "bufferView": 0,
      "componentType": 5125,
      "count": 337461,
      "max": [
        57631
      ],
      "min": [
        0
      ],
      "type": "SCALAR"
    }
  ],
  "asset": {
    "extras": {
      "author": "govindkp (https://sketchfab.com/govindkp)",
      "license": "CC-BY-4.0 (http://creativecommons.org/licenses/by/4.0/)",
      "source": "https://sketchfab.com/models/298a3fa2943d4970b729c158c83196b8",
      "title": "Shirt test"
    },
    "generator": "Sketchfab-3.29.4",
    "version": "2.0"
  },
  "bufferViews": [
    {
      "buffer": 0,
      "byteLength": 1349844,
      "byteOffset": 0,
      "name": "floatBufferViews",
      "target": 34963
    },
    {
      "buffer": 0,
      "byteLength": 461056,
      "byteOffset": 1349844,
      "byteStride": 8,
      "name": "floatBufferViews",
      "target": 34962
    },
    {
      "buffer": 0,
      "byteLength": 1383168,
      "byteOffset": 1810900,
      "byteStride": 12,
      "name": "floatBufferViews",
      "target": 34962
    },
    {
      "buffer": 0,
      "byteLength": 922112,
      "byteOffset": 3194068,
      "byteStride": 16,
      "name": "floatBufferViews",
      "target": 34962
    }
  ],
  "buffers": [
    {
      "byteLength": 4116180,
      "uri": "scene.bin"
    }
  ],
  "images": [
    {
      "uri": "textures/Pattern2D_13695_mtl_baseColor.jpeg"
    },
    {
      "uri": "textures/Pattern2D_13695_mtl_emissive.jpeg"
    }
  ],
  "materials": [
    {
      "doubleSided": true,
      "emissiveFactor": [
        0,
        0,
        0
      ],
      "emissiveTexture": {
        "index": 1,
        "texCoord": 0
      },
      "name": "Pattern2D_13695_mtl",
      "pbrMetallicRoughness": {
        "baseColorFactor": [
          1,
          1,
          1,
          1
        ],
        "baseColorTexture": {
          "index": 0,
          "texCoord": 0
        },
        "metallicFactor": 0,
        "roughnessFactor": 0.71999999999999997
      }
    }
  ],
  "meshes": [
    {
      "primitives": [
        {
          "attributes": {
            "NORMAL": 1,
            "POSITION": 0,
            "TANGENT": 2,
            "TEXCOORD_0": 3
          },
          "indices": 4,
          "material": 0,
          "mode": 4
        }
      ]
    }
  ],
  "nodes": [
    {
      "children": [
        1
      ],
      "name": "RootNode (gltf orientation matrix)",
      "rotation": [
        -0.70710678118654746,
        -0,
        -0,
        0.70710678118654757
      ]
    },
    {
      "children": [
        2
      ],
      "name": "RootNode (model correction matrix)"
    },
    {
      "children": [
        3
      ],
      "name": "Shirt test.obj.cleaner"
    },
    {
      "mesh": 0,
      "name": ""
    }
  ],
  "samplers": [
    {
      "magFilter": 9729,
      "minFilter": 9987,
      "wrapS": 10497,
      "wrapT": 10497
    }
  ],
  "scene": 0,
  "scenes": [
    {
      "name": "OSG_Scene",
      "nodes": [
        0
      ]
    }
  ],
  "textures": [
    {
      "sampler": 0,
      "source": 0
    },
    {
      "sampler": 0,
      "source": 1
    }
  ]
}

